<?xml version="1.0" encoding="UTF-8" standalone="no"?>
<!-- Generator: Adobe Illustrator 13.0.2, SVG Export Plug-In . SVG Version: 6.00 Build 14948)  -->

<svg
   xmlns:ns="&amp;#38;ns_sfw;"
   xmlns:dc="http://purl.org/dc/elements/1.1/"
   xmlns:cc="http://creativecommons.org/ns#"
   xmlns:rdf="http://www.w3.org/1999/02/22-rdf-syntax-ns#"
   xmlns:svg="http://www.w3.org/2000/svg"
   xmlns="http://www.w3.org/2000/svg"
   xmlns:sodipodi="http://sodipodi.sourceforge.net/DTD/sodipodi-0.dtd"
   xmlns:inkscape="http://www.inkscape.org/namespaces/inkscape"
   version="1.1"
   id="Layer_1"
   x="0px"
   y="0px"
   width="412.40289"
   height="203.98079"
   viewBox="0 0 412.4029 203.98079"
   xml:space="preserve"
   inkscape:version="0.48.3.1 r9886"
   sodipodi:docname="fig-gaussianParameters.svg"><defs
   id="defs112"><marker
   inkscape:stockid="Arrow1Lend"
   orient="auto"
   refY="0"
   refX="0"
   id="Arrow1Lend"
   style="overflow:visible"><path
     id="path3826"
     d="M 0,0 5,-5 -12.5,0 5,5 0,0 z"
     style="fill-rule:evenodd;stroke:#000000;stroke-width:1pt"
     transform="matrix(-0.8,0,0,-0.8,-10,0)"
     inkscape:connector-curvature="0" /></marker>
	
	
	
	
	
	
	

	
	
	
	
	
	
	
	
	
	
	
	
	
	
	

	
	
	
	
	

	
	

		
		
		
		
		
	</defs><sodipodi:namedview
   pagecolor="#ffffff"
   bordercolor="#666666"
   borderopacity="1"
   objecttolerance="10"
   gridtolerance="10"
   guidetolerance="10"
   inkscape:pageopacity="0"
   inkscape:pageshadow="2"
   inkscape:window-width="1366"
   inkscape:window-height="741"
   id="namedview110"
   showgrid="false"
   inkscape:zoom="1.4936197"
   inkscape:cx="238.84769"
   inkscape:cy="57.78657"
   inkscape:window-x="0"
   inkscape:window-y="-5"
   inkscape:window-maximized="1"
   inkscape:current-layer="Layer_1"
   inkscape:snap-bbox="true"
   inkscape:snap-bbox-edge-midpoints="true"
   fit-margin-top="0"
   fit-margin-left="0"
   fit-margin-right="0"
   fit-margin-bottom="0" />
<style
   type="text/css"
   id="style3">

	.st0{fill:none;stroke:#ED2024;stroke-width:1.25;}
	.st1{fill:none;stroke:#000000;stroke-width:0.5;stroke-opacity:0.3922;stroke-dasharray:2,2;}
	.st2{enable-background:new    ;}
	.st3{fill:none;stroke:#000000;stroke-width:0.5;}
	.st4{fill:none;stroke:#000000;stroke-width:0.75;}
	.st5{fill:none;stroke:#000000;stroke-width:0.5;stroke-opacity:0.3922;}
	.st6{opacity:0.5;fill:none;stroke:#3953A4;stroke-dasharray:2,2;enable-background:new    ;}

</style>
<metadata
   id="metadata5">
	<ns:sfw>
		<ns:slices />
		<ns:sliceSourceBounds
   y="0.646"
   x="5.281"
   width="410.042"
   height="201.898"
   bottomLeftOrigin="true" />
	</ns:sfw>
<rdf:RDF><cc:Work
     rdf:about=""><dc:format>image/svg+xml</dc:format><dc:type
       rdf:resource="http://purl.org/dc/dcmitype/StillImage" /></cc:Work></rdf:RDF></metadata>
<path
   style="fill:#000000;stroke:#000000;stroke-width:1;stroke-miterlimit:4;stroke-opacity:1;stroke-dasharray:none"
   inkscape:connector-curvature="0"
   d="M 0.665,103.02354 H 399.894"
   class="st5"
   id="Zaxis" /><path
   style="fill:none;stroke:#000000;stroke-width:0.5;stroke-opacity:0.39220031;stroke-dasharray:2, 2"
   inkscape:connector-curvature="0"
   d="m 200.279,146.18454 v -43.16"
   class="st1"
   id="ZEqualZero" /><path
   style="fill:none;stroke:#000000;stroke-width:0.5;stroke-opacity:0.39220031;stroke-dasharray:2, 2"
   inkscape:connector-curvature="0"
   d="M 133.666,146.18454 V 52.850539"
   class="st1"
   id="MinusZ0" />
<path
   style="fill:none;stroke:#000000;stroke-width:1.25"
   inkscape:connector-curvature="0"
   d="m 0.279,2.6335387 c 199.918,99.7760013 200.379,99.8970013 400,0"
   class="st0"
   id="BottomBeamLine" /><path
   style="fill:none;stroke:#000000;stroke-width:1.25"
   inkscape:connector-curvature="0"
   d="m 0.279,203.41254 c 199.918,-99.776 200.379,-99.897 400,0"
   class="st0"
   id="TopBeamLine" />
<path
   inkscape:connector-curvature="0"
   d="m 92.844,79.698539 h 12.65 l -0.075,0.592 h -12.02 l -2.647,16.517 -4.359,-8.974 -1.74,0.8 -0.299,-0.563 2.646,-1.326 3.56,7.232 2.284,-14.278 z"
   id="Sqrt" /><g
   style="enable-background:new"
   id="g24"
   class="st2"
   transform="translate(0,2.0745387)">
		<path
   inkscape:connector-curvature="0"
   id="path26"
   d="m 103.971,92.407 v 1.521 h -8.517 c -0.012,-0.381 0.05,-0.747 0.185,-1.099 0.217,-0.58 0.564,-1.151 1.042,-1.714 0.478,-0.563 1.167,-1.213 2.07,-1.951 1.4,-1.148 2.347,-2.058 2.839,-2.729 0.492,-0.67 0.738,-1.305 0.738,-1.902 0,-0.627 -0.224,-1.156 -0.672,-1.586 -0.448,-0.432 -1.033,-0.646 -1.753,-0.646 -0.762,0 -1.371,0.229 -1.828,0.686 -0.457,0.457 -0.688,1.09 -0.694,1.898 l -1.626,-0.167 c 0.111,-1.213 0.53,-2.137 1.257,-2.772 0.727,-0.635 1.702,-0.954 2.927,-0.954 1.236,0 2.215,0.343 2.936,1.028 0.721,0.685 1.081,1.535 1.081,2.549 0,0.516 -0.105,1.022 -0.316,1.521 -0.211,0.499 -0.561,1.022 -1.05,1.573 -0.489,0.551 -1.302,1.307 -2.439,2.268 -0.949,0.797 -1.559,1.338 -1.828,1.621 -0.27,0.285 -0.492,0.57 -0.668,0.857 h 6.316 z" />
	</g><g
   style="enable-background:new"
   id="g28"
   class="st2"
   transform="translate(0,2.0745387)">
		<path
   inkscape:connector-curvature="0"
   id="path30"
   d="m 121.563,95.363 c 0,-0.888 0.091,-1.603 0.274,-2.144 0.183,-0.542 0.455,-0.959 0.815,-1.253 0.36,-0.294 0.814,-0.441 1.36,-0.441 0.403,0 0.757,0.082 1.061,0.244 0.304,0.162 0.555,0.396 0.753,0.701 0.198,0.307 0.354,0.679 0.466,1.117 0.113,0.439 0.169,1.031 0.169,1.775 0,0.882 -0.09,1.593 -0.271,2.135 -0.181,0.541 -0.452,0.96 -0.812,1.255 -0.36,0.296 -0.816,0.443 -1.366,0.443 -0.724,0 -1.293,-0.26 -1.706,-0.778 -0.495,-0.625 -0.743,-1.643 -0.743,-3.054 z m 0.948,0 c 0,1.233 0.145,2.055 0.433,2.463 0.288,0.408 0.645,0.612 1.068,0.612 0.424,0 0.78,-0.205 1.068,-0.615 0.288,-0.41 0.433,-1.229 0.433,-2.46 0,-1.236 -0.145,-2.058 -0.433,-2.464 -0.289,-0.407 -0.648,-0.61 -1.079,-0.61 -0.423,0 -0.762,0.18 -1.015,0.538 -0.316,0.458 -0.475,1.303 -0.475,2.536 z" />
	</g><g
   style="enable-background:new"
   id="g44"
   class="st2"
   transform="translate(0,2.0745387)">
		<path
   inkscape:connector-curvature="0"
   id="path46"
   d="m 188.239,95.363 c 0,-0.888 0.091,-1.603 0.274,-2.144 0.183,-0.542 0.455,-0.959 0.815,-1.253 0.36,-0.294 0.814,-0.441 1.36,-0.441 0.403,0 0.757,0.082 1.061,0.244 0.304,0.162 0.555,0.396 0.753,0.701 0.198,0.307 0.354,0.679 0.466,1.117 0.113,0.439 0.169,1.031 0.169,1.775 0,0.882 -0.09,1.593 -0.271,2.135 -0.181,0.541 -0.452,0.96 -0.812,1.255 -0.36,0.296 -0.816,0.443 -1.366,0.443 -0.724,0 -1.293,-0.26 -1.706,-0.778 -0.495,-0.625 -0.743,-1.643 -0.743,-3.054 z m 0.948,0 c 0,1.233 0.145,2.055 0.433,2.463 0.288,0.408 0.645,0.612 1.068,0.612 0.424,0 0.78,-0.205 1.068,-0.615 0.288,-0.41 0.433,-1.229 0.433,-2.46 0,-1.236 -0.145,-2.058 -0.433,-2.464 -0.289,-0.407 -0.648,-0.61 -1.079,-0.61 -0.423,0 -0.762,0.18 -1.015,0.538 -0.316,0.458 -0.475,1.303 -0.475,2.536 z" />
	</g><g
   style="enable-background:new"
   id="g68"
   class="st2"
   transform="translate(0,2.0745387)">
		<path
   inkscape:connector-curvature="0"
   id="path70"
   d="m 171.163,167.756 v -7.512 h 3.331 c 0.669,0 1.178,0.067 1.527,0.202 0.348,0.135 0.627,0.373 0.835,0.715 0.208,0.342 0.313,0.719 0.313,1.133 0,0.532 -0.173,0.981 -0.518,1.348 -0.345,0.365 -0.878,0.598 -1.599,0.696 0.263,0.127 0.463,0.251 0.6,0.374 0.291,0.267 0.565,0.6 0.825,0.999 l 1.307,2.045 h -1.25 l -0.994,-1.563 c -0.29,-0.451 -0.529,-0.796 -0.717,-1.035 -0.188,-0.239 -0.356,-0.406 -0.504,-0.502 -0.149,-0.096 -0.3,-0.163 -0.454,-0.2 -0.113,-0.023 -0.297,-0.036 -0.553,-0.036 h -1.153 v 3.336 h -0.996 z m 0.993,-4.196 h 2.137 c 0.455,0 0.81,-0.047 1.066,-0.142 0.256,-0.094 0.451,-0.244 0.584,-0.45 0.133,-0.207 0.2,-0.432 0.2,-0.674 0,-0.355 -0.129,-0.647 -0.387,-0.877 -0.258,-0.229 -0.665,-0.343 -1.222,-0.343 h -2.378 v 2.486 z" />
	</g>
<g
   id="RayleighRangeArrow"
   transform="translate(0,2.0745387)">
		<path
   inkscape:connector-curvature="0"
   d="m 142.28,150.799 -8.413,-3.094 8.413,-3.094 c -1.343,1.827 -1.336,4.327 0,6.188 z"
   id="path3729_5_" />
		<path
   inkscape:connector-curvature="0"
   d="m 191.867,144.608 8.412,3.096 -8.412,3.094 c 1.344,-1.831 1.337,-4.329 0,-6.19 z"
   id="path3732_7_" />
		<path
   style="fill:none;stroke:#000000;stroke-width:0.75"
   inkscape:connector-curvature="0"
   d="m 133.666,145.801 v 3.711"
   class="st4"
   id="path3755_9_" />
		<path
   style="fill:none;stroke:#000000;stroke-width:0.75"
   inkscape:connector-curvature="0"
   d="m 200.175,145.803 v 3.711"
   class="st4"
   id="path3755_8_" />
		<line
   style="fill:none;stroke:#000000;stroke-width:0.75"
   y2="147.661"
   x2="197.052"
   y1="147.661"
   x1="137.146"
   class="st4"
   id="line66" />
	</g><path
   id="path3729_2_"
   d="m 130.571,72.445539 3.094,-8.413 3.094,8.413 c -1.825,-1.345 -4.324,-1.337 -6.188,0 z"
   inkscape:connector-curvature="0" /><path
   id="path3732_2_"
   d="m 136.758,94.611539 -3.093,8.412001 -3.094,-8.412001 c 1.827,1.343 4.326,1.336 6.187,0 z"
   inkscape:connector-curvature="0" /><path
   id="path3755_1_"
   class="st4"
   d="m 131.811,64.311539 h 3.711"
   inkscape:connector-curvature="0"
   style="fill:none;stroke:#000000;stroke-width:0.75" /><path
   id="path3755_2_"
   class="st4"
   d="m 131.811,103.02354 h 3.711"
   inkscape:connector-curvature="0"
   style="fill:none;stroke:#000000;stroke-width:0.75" /><line
   id="line73"
   class="st4"
   x1="133.666"
   y1="99.415543"
   x2="133.666"
   y2="67.507538"
   style="fill:none;stroke:#000000;stroke-width:0.75" /><g
   id="BeamWaistArrow"
   transform="translate(0,2.0745387)">
		<path
   style="fill:none;stroke:#000000;stroke-width:0.75"
   inkscape:connector-curvature="0"
   d="m 198.424,75.437 h 3.71"
   class="st4"
   id="path3755_4_" />
		<path
   style="fill:none;stroke:#000000;stroke-width:0.75"
   inkscape:connector-curvature="0"
   d="m 198.424,100.949 h 3.71"
   class="st4"
   id="path3755_3_" />
		<path
   inkscape:connector-curvature="0"
   d="m 197.188,83.848 3.092,-8.412 3.094,8.412 c -1.827,-1.343 -4.326,-1.336 -6.186,0 z"
   id="path3729" />
		<path
   inkscape:connector-curvature="0"
   d="m 203.373,92.535 -3.094,8.414 -3.094,-8.414 c 1.827,1.343 4.327,1.336 6.188,0 z"
   id="path3732" />
		<line
   style="fill:none;stroke:#000000;stroke-width:0.75"
   y2="80.560997"
   x2="200.27901"
   y1="97.467003"
   x1="200.27901"
   class="st4"
   id="line80" />
	</g><g
   id="WidthFunctionArrow"
   transform="translate(0,2.0745387)">
		<path
   inkscape:connector-curvature="0"
   d="m 350.258,32.269 3.094,-8.413 3.098,8.413 c -1.831,-1.344 -4.331,-1.336 -6.192,0 z"
   id="path3729_1_" />
		<path
   inkscape:connector-curvature="0"
   d="m 356.444,92.742 -3.098,8.41 -3.095,-8.41 c 1.835,1.343 4.333,1.336 6.193,0 z"
   id="path3732_1_" />
		<line
   style="fill:none;stroke:#000000;stroke-width:0.75"
   y2="29.575001"
   x2="353.35199"
   y1="96.418999"
   x1="353.35199"
   class="st4"
   id="line85" />
		<path
   style="fill:none;stroke:#000000;stroke-width:0.75"
   inkscape:connector-curvature="0"
   d="m 351.496,100.949 h 3.711"
   class="st4"
   id="path3755_5_" />
		<path
   style="fill:none;stroke:#000000;stroke-width:0.75"
   inkscape:connector-curvature="0"
   d="m 351.496,24.129 h 3.711"
   class="st4"
   id="path3755_10_" />
	</g><path
   inkscape:connector-curvature="0"
   d="m 392.586,99.928539 8.412,3.096001 -8.412,3.093 c 1.345,-1.828 1.336,-4.326 0,-6.189001 z"
   id="ZAxisArrow" />
<path
   style="fill:#000000;stroke:#000000;stroke-width:0.99999994;stroke-miterlimit:4;stroke-opacity:1;stroke-dasharray:none;marker-start:none;marker-end:url(#Arrow1Lend)"
   inkscape:connector-curvature="0"
   d="m 200.00268,203.59691 0,-185.397193"
   class="st5"
   id="Zaxis-0" />
<text
   xml:space="preserve"
   style="font-size:20px;font-style:normal;font-variant:normal;font-weight:normal;font-stretch:normal;line-height:125%;letter-spacing:0px;word-spacing:0px;fill:#000000;fill-opacity:1;stroke:none;font-family:FreeSans;-inkscape-font-specification:FreeSans"
   x="194.10892"
   y="13.519996"
   id="text3957-0"
   sodipodi:linespacing="125%"><tspan
     sodipodi:role="line"
     id="tspan3959-9"
     x="194.10892"
     y="13.519996"
     style="font-style:italic;font-family:cmmi10;-inkscape-font-specification:cmmi10">x<tspan
   style="font-style:normal;font-variant:normal;font-weight:normal;font-stretch:normal;font-family:FreeSerif;-inkscape-font-specification:FreeSerif"
   id="tspan3022">'</tspan></tspan></text>
<text
   xml:space="preserve"
   style="font-size:20px;font-style:normal;font-variant:normal;font-weight:normal;font-stretch:normal;line-height:125%;letter-spacing:0px;word-spacing:0px;fill:#000000;fill-opacity:1;stroke:none;font-family:FreeSans;-inkscape-font-specification:FreeSans"
   x="400.24603"
   y="107.65872"
   id="text3957"
   sodipodi:linespacing="125%"><tspan
     sodipodi:role="line"
     id="tspan3959"
     x="400.24603"
     y="107.65872"
     style="font-style:italic;font-family:cmmi10;-inkscape-font-specification:cmmi10">z<tspan
   style="font-style:normal;font-variant:normal;font-weight:normal;font-stretch:normal;font-family:FreeSerif;-inkscape-font-specification:FreeSerif"
   id="tspan3022-6">'</tspan></tspan></text>
<text
   xml:space="preserve"
   style="font-size:20px;font-style:normal;font-weight:normal;line-height:125%;letter-spacing:0px;word-spacing:0px;fill:#000000;fill-opacity:1;stroke:none;font-family:times new roman;-inkscape-font-specification:times new roman"
   x="358.14087"
   y="63.605034"
   id="text4638"
   sodipodi:linespacing="125%"><tspan
     sodipodi:role="line"
     id="tspan4640"
     x="358.14087"
     y="63.605034"
     style="font-family:cmmi10;-inkscape-font-specification:cmmi10">w<tspan
   style="font-style:normal;font-variant:normal;font-weight:normal;font-stretch:normal;font-family:FreeSerif;-inkscape-font-specification:FreeSerif"
   id="tspan4642">(</tspan>z<tspan
   style="font-style:normal;font-variant:normal;font-weight:normal;font-stretch:normal;font-family:FreeSerif;-inkscape-font-specification:FreeSerif"
   id="tspan4644">')</tspan></tspan></text>
<text
   xml:space="preserve"
   style="font-size:20px;font-style:normal;font-weight:normal;line-height:125%;letter-spacing:0px;word-spacing:0px;fill:#000000;fill-opacity:1;stroke:none;font-family:times new roman;-inkscape-font-specification:times new roman"
   x="105.79182"
   y="94.14753"
   id="text4646"
   sodipodi:linespacing="125%"><tspan
     sodipodi:role="line"
     id="tspan4648"
     x="105.79182"
     y="94.14753"
     style="font-family:cmmi10;-inkscape-font-specification:cmmi10">w</tspan></text>
<text
   xml:space="preserve"
   style="font-size:20px;font-style:normal;font-weight:normal;line-height:125%;letter-spacing:0px;word-spacing:0px;fill:#000000;fill-opacity:1;stroke:none;font-family:times new roman;-inkscape-font-specification:times new roman"
   x="173.01991"
   y="95.789673"
   id="text4646-0"
   sodipodi:linespacing="125%"><tspan
     sodipodi:role="line"
     id="tspan4648-4"
     x="173.01991"
     y="95.789673"
     style="font-family:cmmi10;-inkscape-font-specification:cmmi10">w</tspan></text>
<text
   xml:space="preserve"
   style="font-size:20px;font-style:normal;font-weight:normal;line-height:125%;letter-spacing:0px;word-spacing:0px;fill:#000000;fill-opacity:1;stroke:none;font-family:cmmi10;-inkscape-font-specification:cmmi10"
   x="160.51387"
   y="164.67982"
   id="text4671"
   sodipodi:linespacing="125%"><tspan
     sodipodi:role="line"
     id="tspan4673"
     x="160.51387"
     y="164.67982">z</tspan></text>
</svg>